<svg xmlns="http://www.w3.org/2000/svg" version="1.1" xmlns:xlink="http://www.w3.org/1999/xlink" viewBox="0 0 200 200"><rect width="200" height="200" fill="url('#gradient')"></rect><defs><linearGradient id="gradient" gradientTransform="rotate(136 0.5 0.5)"><stop offset="0%" stop-color="#47b03e"></stop><stop offset="100%" stop-color="#47b03e"></stop></linearGradient></defs><g><g fill="#ffffff" transform="matrix(8.664615384615384,0,0,8.664615384615384,20.63196799645057,147.39907370347242)" stroke="#aade39" stroke-width="0"><path d="M4.55-11.38L4.55 0.24Q4.55 2.20 3.51 3.23Q2.47 4.27 0.56 4.27L0.56 4.27Q-0.28 4.27-1.00 4.10L-1.00 4.10L-0.85 1.61Q-0.42 1.73 0.02 1.73L0.02 1.73Q1.22 1.73 1.26 0.36L1.26 0.36L1.26-11.42Q1.26-13.23 2.33-14.22Q3.41-15.21 5.43-15.21L5.43-15.21Q6.09-15.21 7.07-15.01L7.07-15.01L6.84-12.58Q6.37-12.68 5.84-12.68L5.84-12.68Q4.55-12.68 4.55-11.38L4.55-11.38ZM10.67-11.38L10.67 0.24Q10.67 2.20 9.63 3.23Q8.59 4.27 6.68 4.27L6.68 4.27Q5.84 4.27 5.13 4.10L5.13 4.10L5.27 1.61Q5.70 1.73 6.14 1.73L6.14 1.73Q7.34 1.73 7.38 0.36L7.38 0.36L7.38-11.42Q7.38-13.23 8.46-14.22Q9.53-15.21 11.55-15.21L11.55-15.21Q12.22-15.21 13.19-15.01L13.19-15.01L12.96-12.58Q12.49-12.68 11.96-12.68L11.96-12.68Q10.67-12.68 10.67-11.38L10.67-11.38ZM16.80-11.38L16.80 0.24Q16.80 2.20 15.76 3.23Q14.72 4.27 12.80 4.27L12.80 4.27Q11.96 4.27 11.25 4.10L11.25 4.10L11.40 1.61Q11.83 1.73 12.27 1.73L12.27 1.73Q13.47 1.73 13.51 0.36L13.51 0.36L13.51-11.42Q13.51-13.23 14.58-14.22Q15.65-15.21 17.68-15.21L17.68-15.21Q18.34-15.21 19.32-15.01L19.32-15.01L19.08-12.58Q18.61-12.68 18.09-12.68L18.09-12.68Q16.80-12.68 16.80-11.38L16.80-11.38Z"></path></g></g></svg>