<svg xmlns="http://www.w3.org/2000/svg" version="1.1" xmlns:xlink="http://www.w3.org/1999/xlink" viewBox="0 0 200 200"><rect width="200" height="200" fill="url('#gradient')"></rect><defs><linearGradient id="gradient" gradientTransform="rotate(136 0.5 0.5)"><stop offset="0%" stop-color="#47b03e"></stop><stop offset="100%" stop-color="#47b03e"></stop></linearGradient></defs><g><g fill="#ffffff" transform="matrix(9.033784461152882,0,0,9.033784461152882,72.58035218045228,149.41842829864424)" stroke="#aade39" stroke-width="0"><path d="M4.55-11.38L4.55 0.24Q4.55 2.20 3.51 3.23Q2.47 4.27 0.56 4.27L0.56 4.27Q-0.28 4.27-1.00 4.10L-1.00 4.10L-0.85 1.61Q-0.42 1.73 0.02 1.73L0.02 1.73Q1.22 1.73 1.26 0.36L1.26 0.36L1.26-11.42Q1.26-13.23 2.33-14.22Q3.41-15.21 5.43-15.21L5.43-15.21Q6.09-15.21 7.07-15.01L7.07-15.01L6.84-12.58Q6.37-12.68 5.84-12.68L5.84-12.68Q4.55-12.68 4.55-11.38L4.55-11.38Z"></path></g></g></svg>